<?xml version="1.0" encoding="UTF-8"?>
<!DOCTYPE svg  PUBLIC '-//W3C//DTD SVG 20010904//EN'  'http://www.w3.org/TR/2001/REC-SVG-20010904/DTD/svg10.dtd'>
<svg width="621pt" height="158pt" version="1.0" viewBox="0 0 621 158" xmlns="http://www.w3.org/2000/svg">
<g transform="translate(0 158) scale(.1 -.1)">
<path d="m0 790v-790h3105 3105v790 790h-3105-3105v-790zm6100 0v-680h-2995-2995v680 680h2995 2995v-680z"/>
<path d="m4300 1100c-11-11-20-29-20-40s9-29 20-40 29-20 40-20 29 9 40 20 20 29 20 40-9 29-20 40-29 20-40 20-29-9-40-20z"/>
<path d="m1515 926c-42-18-65-47-72-89-4-29-1-40 20-61 32-32 68-33 102-3 20 17 27 32 27 60 0 43 19 50 36 12s15-53-13-80c-21-21-33-25-89-25-97 0-136-19-136-67s26-53 282-53c138 0 238 4 238 9s3 16 6 25c5 14-18 16-225 16-147 0-231 4-231 10s29 10 68 10c156 0 227 61 191 164-24 70-127 106-204 72zm19-81c8-21-3-45-20-45-18 0-28 24-20 45 3 8 12 15 20 15 7 0 16-7 20-15z"/>
<path d="m2975 921c-48-22-79-54-100-103-20-49-19-84 4-134 29-64 100-90 161-59 57 30 75 86 45 144-24 48-77 55-121 17-22-18-28-32-28-65-1-36-3-39-14-24-24 31-10 110 25 145 55 55 148 46 190-18 26-40 21-116-11-164l-26-40h139c124 0 140 2 145 18 3 9 19 79 35 155l29 137h-47-47l-18-92c-31-169-31-168-76-168h-39l10 32c18 63 11 112-22 157-54 75-151 100-234 62zm53-204c4-21-15-47-34-47-15 0-20 51-7 64 12 12 38 1 41-17z"/>
<path d="m2105 915c-108-42-157-155-102-236 40-60 105-76 163-40 84 51 57 181-37 181-35 0-79-53-79-96 0-29-3-35-12-26-17 17-14 86 5 116 36 55 132 81 206 55 36-13 36-15 15-58-48-96-12-191 71-191 42 0 95 59 95 104 0 38-20 87-48 119-14 16-14 19-2 27 20 13 74 12 103-1l25-11-24-35c-81-121 15-266 117-175 44 39 50 99 15 167-29 57-24 65 42 65 39 0 42-2 37-22-19-88-45-214-45-225 0-18 79-17 86 1 3 7 15 65 28 127 21 110 23 114 49 117 21 3 27 9 27 28 0 24 0 24-105 24-73 0-117-5-145-16-37-15-43-15-80 0-52 21-95 20-146-3-37-17-43-17-69-3-41 21-142 25-190 7zm452-162c4-37 1-52-11-62-42-35-63 37-30 101 20 39 35 25 41-39zm-217 31c22-57 2-115-35-100-27 10-13 126 15 126 6 0 15-12 20-26zm-196-50c8-22-12-56-32-52-21 4-28 34-12 53 16 20 36 19 44-1z"/>
<path d="m3591 880c-6-28-11-58-11-65 0-9-9-15-21-15-28 0-79-53-79-82 0-13 7-34 16-46 58-84 219-57 255 43 14 38 32 44 67 19 36-25 23-74-20-74-11 0-18-7-18-20 0-15 7-20 26-20 77 0 134 73 99 126-18 28-71 54-109 54-16 0-24 5-22 13 3 6 7 24 10 40 6 25 10 27 55 27 44 0 49 2 53 25l5 25h-148-147l-11-50zm105-12c-3-7-7-25-10-40-5-23-12-28-36-28-28 0-30 2-24 28 10 49 13 52 43 52 20 0 29-4 27-12zm-31-140c-16-54-78-75-115-38-16 16-18 25-10 40 9 17 21 20 71 20 58 0 60-1 54-22z"/>
<path d="m4035 918c-2-7-17-77-33-155l-29-143h194c222 0 243 5 272 71 62 139-86 304-190 211-26-24-34-43-53-127l-22-100-47-3c-26-2-47 1-47 6 0 11 35 184 46 226 6 25 5 26-40 26-29 0-48-5-51-12zm348-79c10-15 22-47 24-72 5-39 2-49-20-71-20-20-36-26-72-26s-45 3-45 18c1 25 34 155 43 170 13 20 48 10 70-19z"/>
</g>
</svg>
